<svg width="33" height="47" viewBox="0 0 33 47" fill="none" xmlns="http://www.w3.org/2000/svg">
<path d="M25.6224 0.246951C25.2984 0.0890785 24.9053 0.10657 24.5998 0.291902L22.1641 1.76931L19.7283 0.291902C19.3937 0.0888972 18.9579 0.0888972 18.6232 0.291902L16.1875 1.76931L13.7518 0.291902C13.4172 0.0888972 12.9814 0.0888972 12.6467 0.291902L10.2109 1.76931L7.77519 0.291902C7.4406 0.0888972 7.00481 0.0888972 6.67012 0.291902L4.23438 1.76931L1.79863 0.291902C1.49312 0.106388 1.10007 0.0892597 0.776037 0.246951C0.452306 0.404642 0.25 0.711778 0.25 1.04592V42.9157C0.25 44.9146 2.03739 46.5408 4.23438 46.5408H28.1406C30.3376 46.5408 32.125 44.9146 32.125 42.9157V25.1528C32.125 24.8185 31.9228 24.5115 31.599 24.3538C31.2749 24.1958 30.882 24.2134 30.5764 24.3987L28.1406 25.8761L26.1484 24.6678V1.04592C26.1484 0.711778 25.9462 0.404642 25.6224 0.246951ZM4.23438 44.7282C3.13588 44.7282 2.24219 43.9151 2.24219 42.9157V2.73938L3.68184 3.61257C4.01643 3.81558 4.45222 3.81558 4.78691 3.61257L7.22266 2.13517L9.6584 3.61257C9.99299 3.81558 10.4288 3.81558 10.7635 3.61257L13.1992 2.13517L15.635 3.61257C15.9696 3.81558 16.4053 3.81558 16.74 3.61257L19.1758 2.13517L21.6115 3.61257C21.9461 3.81558 22.3819 3.81558 22.7166 3.61257L24.1562 2.73938V42.9157C24.1562 43.5757 24.3521 44.1946 24.6923 44.7282H4.23438Z" fill="white"/>
<path d="M13.1992 16.9963C14.2977 16.9963 15.1914 17.8094 15.1914 18.8088C15.1914 19.8083 14.2977 20.6214 13.1992 20.6214C12.3924 20.6214 11.6702 20.1837 11.3595 19.5062C11.1478 19.0443 10.5643 18.8259 10.0567 19.0188C9.54893 19.2116 9.30917 19.7422 9.52104 20.2041C10.0105 21.2715 11.0117 22.0391 12.2031 22.3175V23.3402C12.2031 23.8406 12.6492 24.2465 13.1992 24.2465C13.7493 24.2465 14.1953 23.8406 14.1953 23.3402V22.3192C15.9119 21.9157 17.1836 20.4949 17.1836 18.8088C17.1836 16.81 15.3962 15.1838 13.1992 15.1838C12.1007 15.1838 11.207 14.3707 11.207 13.3712C11.207 12.3718 12.1007 11.5587 13.1992 11.5587C14.0061 11.5587 14.7282 11.9964 15.0389 12.6738C15.2508 13.1358 15.8342 13.3542 16.3417 13.1612C16.8495 12.9685 17.0893 12.4378 16.8774 11.9759C16.3879 10.9085 15.3867 10.141 14.1953 9.86259V8.83986C14.1953 8.33942 13.7493 7.93359 13.1992 7.93359C12.6492 7.93359 12.2031 8.33942 12.2031 8.83986V9.86087C10.4866 10.2643 9.21484 11.6852 9.21484 13.3712C9.21484 15.3701 11.0023 16.9963 13.1992 16.9963Z" fill="white"/>
<path d="M19.1758 27.8716H7.22266C6.67261 27.8716 6.22656 28.2774 6.22656 28.7778C6.22656 29.2783 6.67261 29.6841 7.22266 29.6841H19.1758C19.7258 29.6841 20.1719 29.2783 20.1719 28.7778C20.1719 28.2774 19.7259 27.8716 19.1758 27.8716Z" fill="white"/>
<path d="M19.1758 33.3091H7.22266C6.67261 33.3091 6.22656 33.7149 6.22656 34.2153C6.22656 34.7158 6.67261 35.1216 7.22266 35.1216H19.1758C19.7258 35.1216 20.1719 34.7158 20.1719 34.2153C20.1719 33.7149 19.7259 33.3091 19.1758 33.3091Z" fill="white"/>
<path d="M19.1758 38.7471H7.22266C6.67261 38.7471 6.22656 39.1529 6.22656 39.6533C6.22656 40.1538 6.67261 40.5596 7.22266 40.5596H19.1758C19.7258 40.5596 20.1719 40.1538 20.1719 39.6533C20.1719 39.1529 19.7259 38.7471 19.1758 38.7471Z" fill="white"/>
</svg>
