<svg width="41" height="65" viewBox="0 0 41 65" fill="none" xmlns="http://www.w3.org/2000/svg">
<path d="M32.0544 0.96584C31.6519 0.750291 31.1636 0.774172 30.7841 1.02721L27.7584 3.04437L24.7327 1.02721C24.3171 0.750043 23.7757 0.750043 23.36 1.02721L20.3342 3.04437L17.3085 1.02721C16.8929 0.750043 16.3515 0.750043 15.9358 1.02721L12.91 3.04437L9.8843 1.02721C9.46867 0.750043 8.92732 0.750043 8.51157 1.02721L5.48584 3.04437L2.46011 1.02721C2.08061 0.773925 1.59234 0.750538 1.18983 0.96584C0.787686 1.18114 0.536377 1.60048 0.536377 2.0567V59.223C0.536377 61.9521 2.75671 64.1724 5.48584 64.1724H35.1826C37.9117 64.1724 40.1321 61.9521 40.1321 59.223V34.9706C40.1321 34.5143 39.8809 34.0951 39.4786 33.8798C39.0761 33.6641 38.588 33.6881 38.2083 33.9411L35.1826 35.9583L32.7079 34.3085V2.0567C32.7079 1.60048 32.4567 1.18114 32.0544 0.96584ZM5.48584 61.6977C4.12127 61.6977 3.01111 60.5875 3.01111 59.223V4.36884L4.79947 5.56104C5.2151 5.83821 5.75645 5.83821 6.1722 5.56104L9.19793 3.54389L12.2237 5.56104C12.6393 5.83821 13.1806 5.83821 13.5964 5.56104L16.6221 3.54389L19.6479 5.56104C20.0635 5.83821 20.6048 5.83821 21.0206 5.56104L24.0463 3.54389L27.072 5.56104C27.4877 5.83821 28.029 5.83821 28.4448 5.56104L30.2331 4.36884V59.223C30.2331 60.1241 30.4764 60.9691 30.8991 61.6977H5.48584Z" fill="white"/>
<path d="M24.0463 38.6829H9.19794C8.51466 38.6829 7.96057 39.237 7.96057 39.9202C7.96057 40.6035 8.51466 41.1576 9.19794 41.1576H24.0463C24.7296 41.1576 25.2837 40.6035 25.2837 39.9202C25.2837 39.237 24.7297 38.6829 24.0463 38.6829Z" fill="white"/>
<path d="M24.0857 32H9.23737C8.55409 32 8 32.5541 8 33.2374C8 33.9206 8.55409 34.4747 9.23737 34.4747H24.0857C24.769 34.4747 25.3231 33.9206 25.3231 33.2374C25.3231 32.5541 24.7691 32 24.0857 32Z" fill="white"/>
<path d="M24.0857 25H9.23737C8.55409 25 8 25.5541 8 26.2374C8 26.9206 8.55409 27.4747 9.23737 27.4747H24.0857C24.769 27.4747 25.3231 26.9206 25.3231 26.2374C25.3231 25.5541 24.7691 25 24.0857 25Z" fill="white"/>
<path d="M24.0463 46.1069H9.19794C8.51466 46.1069 7.96057 46.661 7.96057 47.3443C7.96057 48.0276 8.51466 48.5817 9.19794 48.5817H24.0463C24.7296 48.5817 25.2837 48.0276 25.2837 47.3443C25.2837 46.661 24.7297 46.1069 24.0463 46.1069Z" fill="white"/>
<path d="M24.0463 53.5312H9.19794C8.51466 53.5312 7.96057 54.0853 7.96057 54.7686C7.96057 55.4519 8.51466 56.006 9.19794 56.006H24.0463C24.7296 56.006 25.2837 55.4519 25.2837 54.7686C25.2837 54.0853 24.7297 53.5312 24.0463 53.5312Z" fill="white"/>
</svg>
