<svg width="59" height="65" viewBox="0 0 59 65" fill="none" xmlns="http://www.w3.org/2000/svg">
<path d="M53.2835 54.7465V24.5372C53.2835 18.2268 50.8096 12.2776 46.3175 7.78541C41.8253 3.29324 35.8761 0.819336 29.5656 0.819336C25.0983 0.819336 20.7371 2.08362 16.9536 4.47539C16.3709 4.84389 16.1971 5.61497 16.5655 6.19768C16.934 6.78027 17.7051 6.95441 18.2878 6.58578C21.6714 4.44668 25.5713 3.31596 29.5656 3.31596C41.267 3.31596 50.7869 12.8358 50.7869 24.5372V54.7465H8.34435V24.5372C8.34435 20.5421 9.47507 16.6423 11.6142 13.2592C11.9826 12.6765 11.809 11.9055 11.2263 11.537C10.6432 11.1683 9.87241 11.3422 9.50403 11.9248C7.11202 15.7079 5.84773 20.0692 5.84773 24.5372V54.7465C3.09446 54.7465 0.854492 56.9864 0.854492 59.7397V63.4848C0.854492 64.1741 1.41349 64.7331 2.1028 64.7331H57.0285C57.7178 64.7331 58.2768 64.1741 58.2768 63.4848V59.7397C58.2768 56.9864 56.0368 54.7465 53.2835 54.7465ZM55.7802 62.2365H3.35111V59.7397C3.35111 58.3631 4.4711 57.2431 5.84773 57.2431H53.2835C54.6602 57.2431 55.7802 58.3631 55.7802 59.7397V62.2365Z" fill="white"/>
<path d="M18.3309 46.0083V51.0016C18.3309 51.6909 18.8899 52.2499 19.5792 52.2499H39.5522C40.2416 52.2499 40.8005 51.6909 40.8005 51.0016V46.0083C40.8005 45.319 40.2416 44.76 39.5522 44.76H19.5792C18.8899 44.76 18.3309 45.319 18.3309 46.0083ZM20.8275 47.2566H38.3039V49.7533H20.8275V47.2566Z" fill="white"/>
<path d="M27.0695 41.0149C27.0695 41.7042 27.6285 42.2632 28.3178 42.2632H35.8072C36.4965 42.2632 37.0555 41.7042 37.0555 41.0149C37.0555 40.3256 36.4965 39.7666 35.8072 39.7666H28.3178C27.6284 39.7666 27.0695 40.3256 27.0695 41.0149Z" fill="white"/>
<path d="M24.5734 41.0149C24.5734 40.3256 24.0144 39.7666 23.3251 39.7666H23.3241C22.6348 39.7666 22.0763 40.3256 22.0763 41.0149C22.0763 41.7042 22.6357 42.2632 23.3251 42.2632C24.0146 42.2632 24.5734 41.7042 24.5734 41.0149Z" fill="white"/>
<path d="M13.6772 9.89715C13.9969 9.89715 14.3166 9.77519 14.5604 9.53139C15.0479 9.04392 15.0479 8.25349 14.5604 7.7659C14.0728 7.27856 13.2826 7.27856 12.7949 7.7659L12.7943 7.76652C12.3068 8.25399 12.3072 9.04405 12.7947 9.53164C13.0385 9.77531 13.3578 9.89715 13.6772 9.89715Z" fill="white"/>
<path d="M25.7403 24.2317C25.7403 21.8448 23.7983 19.9028 21.4114 19.9028H18.3308C17.6415 19.9028 17.0825 20.4618 17.0825 21.1511V31.5278C17.0825 32.2171 17.6415 32.7761 18.3308 32.7761C19.0201 32.7761 19.5791 32.2171 19.5791 31.5278V28.5605H20.6907L22.7642 32.1519C22.9955 32.5524 23.4149 32.7763 23.8465 32.7763C24.0582 32.7763 24.2729 32.7223 24.4694 32.6088C25.0664 32.264 25.271 31.5007 24.9262 30.9036L23.3174 28.1171C24.7512 27.4109 25.7403 25.9349 25.7403 24.2317ZM19.5792 22.3995H21.4115C22.4219 22.3995 23.2438 23.2214 23.2438 24.2317C23.2438 25.2421 22.4219 26.064 21.4115 26.064H19.5792V22.3995Z" fill="white"/>
<path d="M29.5659 32.7761C30.2552 32.7761 30.8142 32.2171 30.8142 31.5278V21.1511C30.8142 20.4618 30.2552 19.9028 29.5659 19.9028C28.8766 19.9028 28.3176 20.4618 28.3176 21.1511V31.5278C28.3176 32.2172 28.8764 32.7761 29.5659 32.7761Z" fill="white"/>
<path d="M37.72 19.9028H34.6394C33.95 19.9028 33.3911 20.4618 33.3911 21.1511V31.5278C33.3911 32.2171 33.95 32.7761 34.6394 32.7761C35.3287 32.7761 35.8877 32.2171 35.8877 31.5278V28.5605H37.72C40.1069 28.5605 42.0489 26.6185 42.0489 24.2316C42.0489 21.8447 40.1069 19.9028 37.72 19.9028ZM37.72 26.064H35.8877V22.3996H37.72C38.7303 22.3996 39.5522 23.2215 39.5522 24.2319C39.5522 25.2423 38.7303 26.064 37.72 26.064Z" fill="white"/>
<path d="M40.7996 30.2791C40.1103 30.2791 39.5518 30.838 39.5518 31.5274C39.5518 32.2167 40.1111 32.7757 40.8006 32.7757C41.49 32.7757 42.0489 32.2167 42.0489 31.5274C42.0489 30.838 41.4899 30.2791 40.8006 30.2791H40.7996Z" fill="white"/>
</svg>
