<svg width="67" height="64" viewBox="0 0 67 64" fill="none" xmlns="http://www.w3.org/2000/svg">
<path d="M7.32306 41.7461L7.63151 39.5492L12.0252 40.1661L11.7168 42.363L7.32306 41.7461Z" fill="white"/>
<path d="M16.4515 56.481L16.76 54.2835L18.9575 54.592L18.649 56.7895L16.4515 56.481Z" fill="white"/>
<path d="M66.8223 28.2717L66.6292 26.0616L44.371 28.0099C43.6357 28.0735 42.9423 28.3798 42.4001 28.8805C41.8578 29.3812 41.4973 30.048 41.3753 30.7759L40.3656 36.8362C40.3313 37.1461 40.3627 37.4598 40.4578 37.7568C40.5529 38.0538 40.7095 38.3274 40.9174 38.5598C41.1253 38.7922 41.3798 38.9782 41.6644 39.1056C41.9491 39.233 42.2573 39.299 42.5691 39.2993C42.6343 39.2996 42.6995 39.2967 42.7644 39.2904L61.3112 37.665L62.666 53.1395L55.9467 53.7276C55.5235 51.9082 54.458 50.3026 52.9459 49.2059C51.4338 48.1092 49.5768 47.595 47.7159 47.7577C45.8551 47.9204 44.1155 48.7492 42.8167 50.0918C41.518 51.4343 40.7473 53.2004 40.6463 55.0657L37.2434 55.363C37.0985 55.3764 36.9524 55.3606 36.8136 55.3166C36.6749 55.2726 36.5464 55.2012 36.4357 55.1067C36.3236 55.0136 36.2311 54.8991 36.1635 54.77C36.0958 54.6409 36.0545 54.4996 36.0418 54.3544L35.9453 53.2449L39.2605 52.9542L39.0664 50.7441L35.7511 51.0381L35.6513 49.8975L39.559 47.5497C39.7034 47.4629 39.8262 47.3443 39.9179 47.203C40.0097 47.0617 40.0681 46.9013 40.0886 46.734C40.1091 46.5668 40.0913 46.397 40.0364 46.2377C39.9816 46.0784 39.8912 45.9336 39.772 45.8144L38.3374 44.3809L39.772 42.9463C39.896 42.822 39.9887 42.67 40.0425 42.5029C40.0963 42.3358 40.1096 42.1583 40.0815 41.985C40.0533 41.8117 39.9844 41.6475 39.8805 41.506C39.7765 41.3646 39.6405 41.2498 39.4836 41.1711L35.659 39.2582C35.7589 38.8666 35.8565 38.4738 35.9841 38.091L40.1581 27.96C40.3892 27.3948 40.7718 26.9044 41.2638 26.5428C41.7558 26.1812 42.338 25.9625 42.9464 25.9107L65.817 23.9135C66.0681 23.8929 66.3207 23.8996 66.5704 23.9335L66.8811 21.7366C66.4646 21.6789 66.0429 21.6677 65.624 21.7033L42.7522 23.7005C41.7383 23.7871 40.768 24.1519 39.9481 24.7547C39.1283 25.3575 38.4907 26.1748 38.1055 27.1167L33.9104 37.3243C33.3662 38.9567 33.0492 40.6561 32.9684 42.3749C32.7275 41.8223 32.4237 41.2992 32.0631 40.816C31.4511 39.9996 30.6834 39.3127 29.8043 38.7949C28.9252 38.2771 27.9522 37.9386 26.9415 37.7992L25.174 37.5507L31.08 33.6141L32.6555 35.1896L34.2244 33.6207L32.0054 31.4017C31.824 31.2203 31.5853 31.1073 31.33 31.082C31.0748 31.0567 30.8186 31.1207 30.6051 31.263L22.6387 36.5732L15.2959 24.7224C14.8677 24.031 14.2925 23.4424 13.6112 22.9983C12.9299 22.5542 12.1592 22.2655 11.3538 22.1527L0.308448 20.5994L0 22.7973L11.0442 24.3507C11.5277 24.4179 11.9904 24.5908 12.3995 24.8572C12.8085 25.1236 13.1538 25.4768 13.4108 25.8918L14.112 27.0224L0.308448 25.083L0 27.2798L4.79426 27.9544L3.8678 34.5461L0.308448 34.0468L0 36.2437L3.55936 36.7441L1.39689 52.1265L0.308448 51.9734L0 54.1703L9.96464 55.5705C9.97228 57.6253 10.7939 59.5934 12.2496 61.0437C13.7053 62.494 15.6765 63.3083 17.7313 63.3083C19.4105 63.3035 21.0432 62.7555 22.3852 61.7462C23.7273 60.7369 24.7068 59.3205 25.1773 57.7085L28.5603 58.1834C28.7158 58.2055 28.8726 58.2166 29.0296 58.2167C29.8311 58.2151 30.6052 57.9244 31.2095 57.3979C31.8139 56.8714 32.2079 56.1445 32.3194 55.3508L33.2957 48.3974L33.835 54.5475C33.9093 55.3748 34.2896 56.1446 34.9016 56.7062C35.5135 57.2679 36.313 57.581 37.1436 57.5843C37.2412 57.5843 37.3388 57.5843 37.4365 57.5721L40.8405 57.2736C41.2416 58.975 42.2043 60.4916 43.5731 61.5786C44.942 62.6657 46.6373 63.2598 48.3853 63.265C48.6116 63.265 48.8391 63.2551 49.0676 63.2351C50.9278 63.0737 52.6672 62.2464 53.966 60.9051C55.2649 59.5638 56.036 57.7988 56.1375 55.9344L66.82 54.9991L66.627 52.7889L64.8739 52.942L63.5203 37.4675L66.82 37.179L66.627 34.9688L63.3273 35.2662L62.7481 28.6257L66.8223 28.2717ZM31.3541 46.2527L31.1987 47.3511L26.805 46.7331L27.1135 44.5363L31.3973 45.1376C31.42 45.5098 31.4055 45.8834 31.3541 46.2527ZM6.99223 28.2629L15.6277 29.4767V29.47L20.2 36.8417L6.06466 34.8557L6.99223 28.2629ZM23.2179 56.3128C23.0653 57.3994 22.5938 58.4164 21.8631 59.2351C21.1325 60.0537 20.1754 60.6373 19.1131 60.9121C18.0507 61.1868 16.9307 61.1402 15.8948 60.7784C14.8588 60.4165 13.9535 59.7555 13.2932 58.8791C12.6731 58.0562 12.2945 57.0769 12.1997 56.0509C12.1049 55.0249 12.2977 53.9928 12.7565 53.0702C13.2153 52.1476 13.922 51.3711 14.7974 50.8276C15.6727 50.284 16.6821 49.995 17.7125 49.9929C17.9745 49.9929 18.2362 50.011 18.4958 50.0473C19.9519 50.2538 21.2668 51.0294 22.152 52.2039C23.0372 53.3784 23.4205 54.856 23.2179 56.3128ZM28.8654 55.9866L25.4814 55.5106C25.4766 54.0705 25.0712 52.6601 24.3105 51.4374C23.5498 50.2146 22.4637 49.2277 21.174 48.5871C19.8842 47.9465 18.4417 47.6775 17.0077 47.8101C15.5737 47.9428 14.205 48.4719 13.0547 49.3383C11.7152 50.3454 10.7413 51.7623 10.2809 53.3736L3.59375 52.435L5.75622 37.0581L22.2338 39.3692L26.6286 39.9872C27.484 40.0863 28.3019 40.3945 29.01 40.8847C29.718 41.3748 30.2945 42.0318 30.6884 42.7976L27.4186 42.3383C26.8361 42.2563 26.245 42.4089 25.775 42.7626C25.305 43.1163 24.9947 43.6421 24.9122 44.2245L24.6037 46.4213C24.5214 47.004 24.6739 47.5954 25.0276 48.0657C25.3813 48.5359 25.9073 48.8464 26.4899 48.9289L30.8847 49.5458L30.5763 51.7437L27.2799 51.2811L26.9714 53.4779L30.2678 53.9417L30.1125 55.0401C30.072 55.3307 29.9181 55.5934 29.6843 55.7708C29.4506 55.9482 29.1562 56.0257 28.8654 55.9866ZM37.1147 42.4659L35.9841 43.5965C35.7761 43.8046 35.6593 44.0867 35.6593 44.3809C35.6593 44.6751 35.7761 44.9573 35.9841 45.1654L37.199 46.3781L35.436 47.4377L35.2041 44.7881C35.1115 43.7028 35.1245 42.6111 35.243 41.5283L37.1147 42.4659ZM53.9196 55.0179C54.0153 56.111 53.7847 57.2079 53.2569 58.17C52.7292 59.132 51.928 59.9159 50.9547 60.4225C49.9814 60.9292 48.8798 61.1359 47.789 61.0164C46.6983 60.8969 45.6675 60.4566 44.827 59.7513C43.9864 59.046 43.374 58.1072 43.067 57.0537C42.76 56.0003 42.7723 54.8795 43.1024 53.833C43.4325 52.7866 44.0654 51.8615 44.9212 51.1748C45.7771 50.4881 46.8173 50.0706 47.9104 49.9752C48.0746 49.9607 48.2433 49.953 48.403 49.953C49.7891 49.9555 51.124 50.4767 52.1449 51.4141C53.1659 52.3515 53.799 53.6372 53.9196 55.0179ZM61.1193 35.4681L42.5625 37.1379L43.5666 31.1465C43.6073 30.9039 43.7274 30.6816 43.9082 30.5147C44.089 30.3478 44.3201 30.2457 44.5652 30.2245L60.5423 28.8265L61.1193 35.4681Z" fill="white"/>
<path d="M43.8039 41.4214L48.2252 41.0352L48.4183 43.2458L43.997 43.632L43.8039 41.4214Z" fill="white"/>
<path d="M47.1583 54.5039L49.3689 54.3108L49.562 56.5214L47.3514 56.7145L47.1583 54.5039Z" fill="white"/>
<path d="M18.2317 25.194L19.8006 23.6251L18.366 22.1905H21.2352C21.5295 22.1905 21.8117 22.0736 22.0198 21.8655C22.2279 21.6575 22.3447 21.3753 22.3447 21.081V18.2118L25.9984 21.8654C26.2065 22.0734 26.4886 22.1903 26.7828 22.1903C27.0771 22.1903 27.3592 22.0734 27.5673 21.8654L31.2209 18.2118V21.081C31.2209 21.3753 31.3378 21.6575 31.5459 21.8655C31.754 22.0736 32.0362 22.1905 32.3305 22.1905H36.3092L33.7651 24.7347L35.334 26.3035L39.7721 21.8654C39.9272 21.7103 40.0328 21.5126 40.0756 21.2974C40.1184 21.0822 40.0964 20.8591 40.0125 20.6564C39.9285 20.4537 39.7863 20.2804 39.6039 20.1585C39.4215 20.0366 39.207 19.9715 38.9876 19.9715H33.44V15.5334C33.44 15.314 33.3749 15.0995 33.2529 14.9171C33.131 14.7346 32.9577 14.5925 32.755 14.5085C32.5523 14.4246 32.3293 14.4026 32.1141 14.4454C31.8989 14.4882 31.7012 14.5938 31.546 14.7489L26.7828 19.5121L22.0197 14.7489C21.8645 14.5938 21.6668 14.4882 21.4516 14.4454C21.2364 14.4026 21.0134 14.4246 20.8107 14.5085C20.6079 14.5925 20.4347 14.7346 20.3128 14.9171C20.1908 15.0995 20.1257 15.314 20.1257 15.5334V19.9715H15.6876C15.4682 19.9715 15.2537 20.0366 15.0713 20.1585C14.8889 20.2804 14.7467 20.4537 14.6628 20.6564C14.5788 20.8591 14.5568 21.0822 14.5996 21.2974C14.6424 21.5126 14.748 21.7103 14.9032 21.8654L18.2317 25.194Z" fill="white"/>
<path d="M24.8966 13.3142H27.1156C27.1161 13.0996 27.1624 12.8875 27.2514 12.6922C27.3403 12.4968 27.4699 12.3227 27.6316 12.1814C28.2967 11.494 28.6686 10.5749 28.6686 9.61842C28.6686 8.66189 28.2967 7.74283 27.6316 7.05541C27.4692 6.91398 27.339 6.73939 27.2498 6.5434C27.1606 6.34742 27.1145 6.13459 27.1145 5.91926C27.1145 5.70393 27.1606 5.4911 27.2498 5.29512C27.339 5.09913 27.4692 4.92454 27.6316 4.78311C28.3003 4.09758 28.6729 3.17669 28.669 2.21899H26.4499C26.4496 2.43427 26.4034 2.64701 26.3142 2.84295C26.225 3.0389 26.095 3.21353 25.9329 3.35515C25.2681 4.0432 24.8966 4.96253 24.8966 5.91926C24.8966 6.87599 25.2681 7.79532 25.9329 8.48337C26.095 8.6246 26.225 8.79893 26.3141 8.99463C26.4031 9.19033 26.4492 9.40285 26.4492 9.61786C26.4492 9.83288 26.4031 10.0454 26.3141 10.2411C26.225 10.4368 26.095 10.6111 25.9329 10.7524C25.264 11.4368 24.8917 12.3572 24.8966 13.3142Z" fill="white"/>
<path d="M31.5538 11.0953H33.7729C33.7733 10.8806 33.8196 10.6685 33.9086 10.4732C33.9975 10.2778 34.1272 10.1037 34.2888 9.96243C34.9539 9.27501 35.3258 8.35595 35.3258 7.39942C35.3258 6.4429 34.9539 5.52383 34.2888 4.83642C34.1264 4.69499 33.9963 4.5204 33.9071 4.32441C33.8179 4.12842 33.7717 3.9156 33.7717 3.70027C33.7717 3.48494 33.8179 3.27211 33.9071 3.07612C33.9963 2.88014 34.1264 2.70554 34.2888 2.56411C34.9576 1.87859 35.3302 0.957699 35.3262 0H33.1072C33.1069 0.215279 33.0606 0.428013 32.9714 0.623957C32.8823 0.819901 32.7523 0.994531 32.5901 1.13615C31.9254 1.82421 31.5538 2.74354 31.5538 3.70027C31.5538 4.65699 31.9254 5.57633 32.5901 6.26438C32.7522 6.4056 32.8822 6.57994 32.9713 6.77564C33.0604 6.97134 33.1065 7.18385 33.1065 7.39887C33.1065 7.61388 33.0604 7.8264 32.9713 8.0221C32.8822 8.2178 32.7522 8.39213 32.5901 8.53336C31.9213 9.21785 31.549 10.1382 31.5538 11.0953Z" fill="white"/>
</svg>
