<svg width="55" height="43" viewBox="0 0 55 43" fill="none" xmlns="http://www.w3.org/2000/svg">
<path d="M19.767 19.7938C20.6018 18.8209 21.107 17.555 21.107 16.1729C21.107 13.1106 18.6263 10.6193 15.5769 10.6193C12.5274 10.6193 10.0465 13.1106 10.0465 16.1729C10.0465 17.555 10.5518 18.8209 11.3866 19.7938C9.44753 20.8354 8.12535 22.8897 8.12535 25.2482V30.0996C8.12535 30.8341 8.7181 31.4293 9.44944 31.4293H21.7042C22.4355 31.4293 23.0283 30.8341 23.0283 30.0996V25.2482C23.0284 22.8897 21.7062 20.8354 19.767 19.7938ZM15.5769 13.2787C17.1661 13.2787 18.4588 14.5771 18.4588 16.1729C18.4588 17.759 17.1818 19.0514 15.6062 19.0672H15.5476C13.9718 19.0514 12.6946 17.759 12.6946 16.1729C12.6948 14.577 13.9877 13.2787 15.5769 13.2787ZM20.3802 28.7699H10.7737V25.2482C10.7737 23.3063 12.3465 21.7266 14.28 21.7266H15.5366C15.5634 21.7266 15.5906 21.7266 15.6173 21.7266H16.8738C18.8074 21.7266 20.3804 23.3063 20.3804 25.2482V28.7699H20.3802ZM28.8025 15.1659C28.8025 14.4314 29.3952 13.8362 30.1266 13.8362H37.2842C38.0155 13.8362 38.6082 14.4314 38.6082 15.1659C38.6082 15.9003 38.0155 16.4956 37.2842 16.4956H30.1266C29.3954 16.4956 28.8025 15.9003 28.8025 15.1659ZM49.3382 0.000221621H45.7476C45.7301 -7.38737e-05 45.7126 -7.38737e-05 45.6951 0.000221621H38.797C38.7795 -7.38737e-05 38.762 -7.38737e-05 38.7445 0.000221621H31.8466C31.8289 -7.38737e-05 31.8113 -7.38737e-05 31.7939 0.000221621H24.8954C24.878 -7.38737e-05 24.8608 -7.38737e-05 24.8433 0.000221621H17.9452C17.9277 -7.38737e-05 17.9102 -7.38737e-05 17.8927 0.000221621H10.9948C10.9773 -7.38737e-05 10.9598 -7.38737e-05 10.9423 0.000221621H5.60517C2.51445 0.000221621 0 2.52552 0 5.62925V36.4189C0 39.5229 2.51445 42.0482 5.60517 42.0482H9.1961C9.2139 42.0487 9.23141 42.0485 9.24877 42.0482H16.1467C16.1645 42.0487 16.182 42.0485 16.1994 42.0482H23.0976C23.1149 42.0485 23.1323 42.0485 23.1497 42.0482H30.0482C30.0655 42.0485 30.0829 42.0485 30.1002 42.0482H36.9983C37.0071 42.0484 37.016 42.0485 37.0246 42.0485C37.0335 42.0485 37.0423 42.0484 37.051 42.0482H43.949C43.9665 42.0485 43.9841 42.0485 44.0014 42.0482H49.3379C52.4288 42.0482 54.9434 39.5229 54.9434 36.4189V5.62925C54.9437 2.52552 52.4291 0.000221621 49.3382 0.000221621ZM52.2955 36.4189C52.2955 38.0565 50.9689 39.3888 49.3382 39.3888H46.1759L46.8903 38.0338C47.2325 37.3847 46.9859 36.5801 46.3398 36.2363C45.6935 35.8925 44.8921 36.1403 44.55 36.7893L43.1795 39.3888H39.2254L39.9398 38.0338C40.2821 37.3847 40.0356 36.5801 39.3893 36.2363C38.7427 35.8926 37.9418 36.1401 37.5994 36.7892L36.2287 39.3888H32.2747L32.9891 38.0338C33.3313 37.3847 33.0849 36.5801 32.4386 36.2363C31.7923 35.8926 30.9909 36.1401 30.6487 36.7892L29.278 39.3888H25.324L26.0384 38.0338C26.3806 37.3847 26.1341 36.5801 25.4878 36.2363C24.8414 35.8926 24.0403 36.1401 23.698 36.7892L22.3272 39.3888H18.3732L19.0876 38.0338C19.4298 37.3847 19.1834 36.5801 18.5371 36.2363C17.8905 35.8926 17.0896 36.1401 16.7472 36.7892L15.3765 39.3888H11.4231L12.1375 38.0338C12.4797 37.3847 12.2333 36.5801 11.587 36.2363C10.9407 35.8926 10.1394 36.1401 9.79709 36.7892L8.42636 39.3888H5.60517C3.97462 39.3888 2.64818 38.0565 2.64818 36.4189V5.62925C2.64818 3.99176 3.97477 2.65967 5.60517 2.65967H8.76798L8.05356 4.01452C7.71135 4.66357 7.95778 5.4682 8.60408 5.81201C9.25024 6.15552 10.0515 5.90805 10.394 5.25914L11.7647 2.65967H15.7184L15.004 4.01452C14.6618 4.66357 14.9082 5.4682 15.5545 5.81201C16.2008 6.15552 17.002 5.90805 17.3444 5.25914L18.7151 2.65967H22.669L21.9546 4.01466C21.6124 4.66372 21.859 5.46835 22.5053 5.81201C23.1514 6.15552 23.9529 5.90805 24.295 5.25914L25.6656 2.65967H29.6197L28.9053 4.01452C28.5631 4.66357 28.8095 5.4682 29.4558 5.81201C30.102 6.15552 30.9034 5.90805 31.2457 5.25914L32.6165 2.65967H36.5705L35.8561 4.01452C35.5139 4.66357 35.7603 5.4682 36.4066 5.81201C37.0529 6.15552 37.8541 5.90805 38.1965 5.25914L39.5672 2.65967H43.5212L42.8068 4.01452C42.4646 4.66357 42.711 5.4682 43.3573 5.81201C44.0036 6.15552 44.8048 5.90805 45.1472 5.25914L46.5179 2.65967H49.339C50.9697 2.65967 52.2962 3.99191 52.2962 5.62925V36.4189H52.2955ZM47.0442 26.8824C47.0442 27.6169 46.4514 28.2121 45.7201 28.2121H30.1266C29.3952 28.2121 28.8025 27.6169 28.8025 26.8824C28.8025 26.148 29.3952 25.5527 30.1266 25.5527H45.7201C46.4514 25.5527 47.0442 26.148 47.0442 26.8824ZM47.0442 21.5996C47.0442 22.334 46.4514 22.9293 45.7201 22.9293H30.1266C29.3952 22.9293 28.8025 22.334 28.8025 21.5996C28.8025 20.8651 29.3952 20.2698 30.1266 20.2698H45.7201C46.4514 20.2698 47.0442 20.8652 47.0442 21.5996Z" fill="white"/>
</svg>
