<svg width="56" height="56" viewBox="0 0 56 56" fill="none" xmlns="http://www.w3.org/2000/svg">
<path d="M47.3757 8.12831C42.134 2.88664 35.1648 0 27.752 0C22.1116 0 16.681 1.68409 12.0474 4.87005C11.5541 5.20925 11.4292 5.88419 11.7684 6.37754C12.1077 6.87079 12.7824 6.99568 13.2759 6.65658C17.5464 3.72018 22.5522 2.16813 27.752 2.16813C41.859 2.16813 53.3359 13.645 53.3359 27.752C53.3359 41.859 41.859 53.3359 27.752 53.3359C13.645 53.3359 2.16813 41.859 2.16813 27.752C2.16813 22.5516 3.72007 17.546 6.65604 13.2766C6.99524 12.7833 6.87036 12.1083 6.37711 11.7691C5.88375 11.43 5.20892 11.5547 4.86961 12.0481C1.68388 16.6806 0 22.111 0 27.752C0 35.1648 2.88664 42.134 8.12831 47.3757C13.3701 52.6174 20.3392 55.504 27.752 55.504C35.1648 55.504 42.134 52.6174 47.3757 47.3757C52.6174 42.134 55.504 35.1648 55.504 27.752C55.504 20.3392 52.6174 13.3701 47.3757 8.12831Z" fill="white"/>
<path d="M27.7521 50.0838C40.0658 50.0838 50.0838 40.0659 50.0838 27.7521C50.0838 25.1934 49.6499 22.7344 48.8541 20.4433C48.8518 20.4373 48.8501 20.4311 48.8477 20.4253C45.8085 11.6995 37.5004 5.42041 27.7521 5.42041C15.4384 5.42041 5.42035 15.4383 5.42035 27.7521C5.42035 40.0659 15.4384 50.0838 27.7521 50.0838ZM47.9156 27.7521C47.9156 28.2708 47.8959 28.7851 47.8572 29.2941C46.7193 29.3535 45.6099 29.5225 44.5389 29.7894C44.8908 26.8209 44.448 23.7754 43.271 21.0373C44.5209 21.2509 45.766 21.4902 47.0051 21.7552C47.5967 23.6503 47.9156 25.6646 47.9156 27.7521ZM40.6615 20.6296C42.3094 23.6181 42.8721 27.1734 42.2312 30.5384C37.2829 32.5353 33.446 36.7234 31.9286 41.8943C29.2155 42.6929 26.2884 42.6929 23.5754 41.8943C22.0581 36.7235 18.2212 32.5353 13.2729 30.5385C12.632 27.1739 13.195 23.6178 14.8425 20.6297C19.1175 20.0248 23.4373 19.7176 27.7521 19.7176C32.0667 19.7176 36.3864 20.0247 40.6615 20.6296ZM10.9651 29.7894C9.89406 29.5226 8.78485 29.3535 7.64691 29.2941C7.60821 28.7851 7.58848 28.2708 7.58848 27.7521C7.58848 25.6646 7.90741 23.6503 8.49898 21.7552C9.73807 21.4902 10.9831 21.2509 12.2331 21.0373C11.0563 23.7753 10.6133 26.8211 10.9651 29.7894ZM7.93646 31.4857C15.8587 32.1073 22.1149 38.7524 22.1149 46.8316C22.1149 46.9248 22.1132 47.0182 22.1115 47.1116C14.8969 45.0062 9.34325 38.9688 7.93646 31.4857ZM24.2648 47.613C24.2763 47.3521 24.2831 47.091 24.2831 46.8315C24.2831 45.9598 24.2182 45.1031 24.095 44.2651C25.296 44.5291 26.5238 44.6617 27.7521 44.6617C28.98 44.6617 30.208 44.5291 31.4091 44.2651C31.2859 45.1031 31.2211 45.9598 31.2211 46.8316C31.2211 47.0912 31.2278 47.3522 31.2393 47.6131C30.1062 47.8114 28.9412 47.9157 27.7521 47.9157C26.5631 47.9157 25.398 47.8114 24.2648 47.613ZM33.3927 47.1116C33.3909 47.0182 33.3892 46.9246 33.3892 46.8316C33.3892 38.7525 39.6455 32.1074 47.5678 31.4858C46.1609 38.9688 40.6072 45.0062 33.3927 47.1116ZM27.7521 7.58854C35.8736 7.58854 42.8882 12.4157 46.0799 19.3511C40.0523 18.1564 33.8971 17.5496 27.7519 17.5496C21.6068 17.5496 15.4515 18.1565 9.42412 19.3512C12.6159 12.4155 19.6305 7.58854 27.7521 7.58854Z" fill="white"/>
<path d="M22.3317 27.7519C22.3317 30.7406 24.7633 33.1722 27.752 33.1722C30.7408 33.1722 33.1724 30.7406 33.1724 27.7519C33.1724 24.7631 30.7408 22.3315 27.752 22.3315C24.7633 22.3315 22.3317 24.7631 22.3317 27.7519ZM27.752 24.4997C29.5453 24.4997 31.0042 25.9586 31.0042 27.7519C31.0042 29.5451 29.5453 31.004 27.752 31.004C25.9588 31.004 24.4999 29.5451 24.4999 27.7519C24.4999 25.9586 25.9588 24.4997 27.752 24.4997Z" fill="white"/>
<path d="M8.89452 9.97935C9.17215 9.97935 9.44978 9.87333 9.6615 9.66161C10.0848 9.23829 10.0848 8.55186 9.6615 8.12853C9.23817 7.7052 8.55185 7.7052 8.12842 8.12853L8.12787 8.12907C7.70455 8.5524 7.70476 9.2385 8.12809 9.66183C8.3397 9.87366 8.61711 9.97935 8.89452 9.97935Z" fill="white"/>
</svg>
